<svg width="824.5px" height="158px" xmlns="http://www.w3.org/2000/svg" viewBox="-162.253125 -4 824.50625 158" style="background: rgba(0, 0, 0, 0)" preserveAspectRatio="xMidYMid"><defs><filter id="editing-metal-beveled"><feGaussianBlur stdDeviation="4" in="SourceAlpha" result="blur"></feGaussianBlur><feSpecularLighting surfaceScale="5" specularConstant="0.8" specularExponent="7.5" lighting-color="#ff0000" in="blur" result="specular"><fePointLight x="-250" y="-50" z="300"></fePointLight></feSpecularLighting><feComposite operator="in" in="specular" in2="SourceAlpha" result="comp"></feComposite><feComposite in="SourceGraphic" in2="comp" operator="arithmetic" k1="0" k2="1" k3="1" k4="0"></feComposite></filter></defs><g filter="url(#editing-metal-beveled)"><g transform="matrix(1.3,0,0,1.4,-133.3,178.5)"><path d="M 32 -49 L 3.9 -49 L 3.9 -61.1 L 7.6 -61.1 L 7.6 -94.4 L 3.9 -94.4 L 3.9 -106.5 L 32 -106.5 L 32 -94.4 L 28.3 -94.4 L 28.3 -61.1 L 32 -61.1 L 32 -49 Z M 106.3 -61.1 L 109.5 -61.1 L 109.5 -49 L 86.1 -49 L 86.1 -61.1 L 89.3 -61.1 L 89.3 -73.2 L 89.3 -73.2 Q 89.3 -75.7 88.2 -76.8 L 88.2 -76.8 L 88.2 -76.8 Q 87.2 -78 85.1 -78 L 85.1 -78 L 85.1 -78 Q 80.7 -78 80.7 -73.2 L 80.7 -73.2 L 80.7 -61.1 L 83.8 -61.1 L 83.8 -49 L 60.5 -49 L 60.5 -61.1 L 63.6 -61.1 L 63.6 -73.2 L 63.6 -73.2 Q 63.6 -75.7 62.6 -76.8 L 62.6 -76.8 L 62.6 -76.8 Q 61.6 -78 59.5 -78 L 59.5 -78 L 59.5 -78 Q 55.1 -78 55.1 -73.2 L 55.1 -73.2 L 55.1 -61.1 L 58.2 -61.1 L 58.2 -49 L 34.8 -49 L 34.8 -61.1 L 38 -61.1 L 38 -78 L 34.8 -78 L 34.8 -90.1 L 55.1 -90.1 L 55.1 -84.3 L 55.1 -84.3 Q 60.4 -91.1 68.4 -91.1 L 68.4 -91.1 L 68.4 -91.1 Q 72.9 -91.1 75.7 -89 L 75.7 -89 L 75.7 -89 Q 78.6 -86.9 79.8 -83.1 L 79.8 -83.1 L 79.8 -83.1 Q 82.4 -86.9 85.9 -89 L 85.9 -89 L 85.9 -89 Q 89.3 -91.1 94 -91.1 L 94 -91.1 L 94 -91.1 Q 100.1 -91.1 103.2 -87.2 L 103.2 -87.2 L 103.2 -87.2 Q 106.3 -83.4 106.3 -76.6 L 106.3 -76.6 L 106.3 -61.1 Z M 151.8 -61.1 L 155 -61.1 L 155 -49 L 135.5 -49 L 135.5 -54 L 135.5 -54 Q 133.9 -51.6 130.9 -49.8 L 130.9 -49.8 L 130.9 -49.8 Q 128 -47.9 123.8 -47.9 L 123.8 -47.9 L 123.8 -47.9 Q 118.3 -47.9 115.1 -50.9 L 115.1 -50.9 L 115.1 -50.9 Q 111.9 -53.8 111.9 -59.3 L 111.9 -59.3 L 111.9 -59.3 Q 111.9 -73.2 135.6 -73.6 L 135.6 -73.6 L 135.6 -73.6 Q 135.4 -76.1 133.7 -77 L 133.7 -77 L 133.7 -77 Q 132 -78 128 -78 L 128 -78 L 128 -78 Q 124.6 -78 120.8 -77.3 L 120.8 -77.3 L 120.8 -77.3 Q 117 -76.6 113.8 -75.4 L 113.8 -75.4 L 113.8 -89 L 113.8 -89 Q 117.7 -90 122.3 -90.6 L 122.3 -90.6 L 122.3 -90.6 Q 126.9 -91.1 131.3 -91.1 L 131.3 -91.1 L 131.3 -91.1 Q 142.3 -91.1 147 -87.1 L 147 -87.1 L 147 -87.1 Q 151.8 -83.2 151.8 -74.8 L 151.8 -74.8 L 151.8 -61.1 Z M 135.5 -65.8 L 135.5 -66.3 L 135.5 -66.3 Q 132.2 -66.3 130.4 -65.4 L 130.4 -65.4 L 130.4 -65.4 Q 128.5 -64.5 128.5 -62.4 L 128.5 -62.4 L 128.5 -62.4 Q 128.5 -61.2 129.3 -60.4 L 129.3 -60.4 L 129.3 -60.4 Q 130.1 -59.6 131.5 -59.6 L 131.5 -59.6 L 131.5 -59.6 Q 133.4 -59.6 134.5 -61.2 L 134.5 -61.2 L 134.5 -61.2 Q 135.5 -62.9 135.5 -65.8 L 135.5 -65.8 Z M 179.1 -31.5 L 179.1 -31.5 Q 173.8 -31.5 168.9 -32.2 L 168.9 -32.2 L 168.9 -32.2 Q 164.1 -33 161.4 -33.9 L 161.4 -33.9 L 161.4 -46.1 L 161.4 -46.1 Q 169.2 -44.7 175.5 -44.7 L 175.5 -44.7 L 175.5 -44.7 Q 179.7 -44.7 181.6 -46 L 181.6 -46 L 181.6 -46 Q 183.5 -47.3 183.5 -50.8 L 183.5 -50.8 L 183.5 -54 L 183.5 -54 Q 181.6 -51.6 178.7 -49.8 L 178.7 -49.8 L 178.7 -49.8 Q 175.8 -47.9 172 -47.9 L 172 -47.9 L 172 -47.9 Q 164.4 -47.9 160.6 -53.6 L 160.6 -53.6 L 160.6 -53.6 Q 156.8 -59.2 156.8 -69.5 L 156.8 -69.5 L 156.8 -69.5 Q 156.8 -79.9 160.6 -85.5 L 160.6 -85.5 L 160.6 -85.5 Q 164.4 -91.1 172 -91.1 L 172 -91.1 L 172 -91.1 Q 175.8 -91.1 178.7 -89.3 L 178.7 -89.3 L 178.7 -89.3 Q 181.6 -87.4 183.5 -85.1 L 183.5 -85.1 L 183.5 -90.1 L 203.7 -90.1 L 203.7 -78 L 200.5 -78 L 200.5 -51.9 L 200.5 -51.9 Q 200.5 -41.2 195.1 -36.3 L 195.1 -36.3 L 195.1 -36.3 Q 189.8 -31.5 179.1 -31.5 L 179.1 -31.5 Z M 179.2 -61.1 L 179.2 -61.1 Q 181.3 -61.1 182.4 -62.2 L 182.4 -62.2 L 182.4 -62.2 Q 183.5 -63.4 183.5 -65.8 L 183.5 -65.8 L 183.5 -73.2 L 183.5 -73.2 Q 183.5 -75.7 182.4 -76.8 L 182.4 -76.8 L 182.4 -76.8 Q 181.3 -78 179.2 -78 L 179.2 -78 L 179.2 -78 Q 177 -78 175.9 -76.8 L 175.9 -76.8 L 175.9 -76.8 Q 174.9 -75.7 174.9 -73.2 L 174.9 -73.2 L 174.9 -65.8 L 174.9 -65.8 Q 174.9 -63.4 175.9 -62.2 L 175.9 -62.2 L 175.9 -62.2 Q 177 -61.1 179.2 -61.1 L 179.2 -61.1 Z M 227.9 -47.9 L 227.9 -47.9 Q 217.3 -47.9 211.4 -53.4 L 211.4 -53.4 L 211.4 -53.4 Q 205.5 -59 205.5 -69.5 L 205.5 -69.5 L 205.5 -69.5 Q 205.5 -80.1 211.4 -85.6 L 211.4 -85.6 L 211.4 -85.6 Q 217.3 -91.1 227.9 -91.1 L 227.9 -91.1 L 227.9 -91.1 Q 238.3 -91.1 242.9 -85.7 L 242.9 -85.7 L 242.9 -85.7 Q 247.5 -80.3 247.5 -72.2 L 247.5 -72.2 L 247.5 -66.9 L 223.6 -66.9 L 223.6 -66.4 L 223.6 -66.4 Q 223.6 -63.7 225.2 -62.4 L 225.2 -62.4 L 225.2 -62.4 Q 226.8 -61.1 230.6 -61.1 L 230.6 -61.1 L 230.6 -61.1 Q 235.1 -61.1 239.2 -61.8 L 239.2 -61.8 L 239.2 -61.8 Q 243.2 -62.4 246.3 -63.5 L 246.3 -63.5 L 246.3 -51.6 L 246.3 -51.6 Q 243.7 -50.2 238.7 -49.1 L 238.7 -49.1 L 238.7 -49.1 Q 233.7 -47.9 227.9 -47.9 L 227.9 -47.9 Z M 223.6 -75 L 232.1 -75 L 232.1 -75.9 L 232.1 -75.9 Q 232.1 -78.4 231.1 -79.5 L 231.1 -79.5 L 231.1 -79.5 Q 230 -80.6 227.9 -80.6 L 227.9 -80.6 L 227.9 -80.6 Q 225.7 -80.6 224.6 -79.5 L 224.6 -79.5 L 224.6 -79.5 Q 223.6 -78.3 223.6 -75.9 L 223.6 -75.9 L 223.6 -75 Z M 267.7 -47.9 L 267.7 -47.9 Q 258.4 -47.9 249.8 -50.9 L 249.8 -50.9 L 249.8 -61.8 L 261.7 -61.8 L 261.7 -61.1 L 261.7 -61.1 Q 261.7 -57.5 266.3 -57.5 L 266.3 -57.5 L 266.3 -57.5 Q 270.3 -57.5 270.3 -60.3 L 270.3 -60.3 L 270.3 -60.3 Q 270.3 -61.8 269.1 -62.5 L 269.1 -62.5 L 269.1 -62.5 Q 268 -63.2 265.1 -63.8 L 265.1 -63.8 L 261.4 -64.4 L 261.4 -64.4 Q 249.8 -66.5 249.8 -77.6 L 249.8 -77.6 L 249.8 -77.6 Q 249.8 -84 254.6 -87.6 L 254.6 -87.6 L 254.6 -87.6 Q 259.5 -91.1 267.8 -91.1 L 267.8 -91.1 L 267.8 -91.1 Q 277.1 -91.1 283.4 -88 L 283.4 -88 L 283.4 -77.8 L 272.2 -77.8 L 272.2 -78.5 L 272.2 -78.5 Q 272.2 -80 271.2 -80.7 L 271.2 -80.7 L 271.2 -80.7 Q 270.2 -81.5 268.3 -81.5 L 268.3 -81.5 L 268.3 -81.5 Q 264.6 -81.5 264.6 -79.2 L 264.6 -79.2 L 264.6 -79.2 Q 264.6 -77.9 265.6 -77.2 L 265.6 -77.2 L 265.6 -77.2 Q 266.6 -76.6 269.4 -76 L 269.4 -76 L 273.6 -75.2 L 273.6 -75.2 Q 280.2 -73.9 283 -70.5 L 283 -70.5 L 283 -70.5 Q 285.8 -67.1 285.8 -61.8 L 285.8 -61.8 L 285.8 -61.8 Q 285.8 -55 281.1 -51.5 L 281.1 -51.5 L 281.1 -51.5 Q 276.4 -47.9 267.7 -47.9 L 267.7 -47.9 Z M 366.3 -78.5 L 366.3 -67.5 L 362.6 -67.5 L 362.6 -52.7 L 362.6 -52.7 Q 359.4 -50.8 353.1 -49.4 L 353.1 -49.4 L 353.1 -49.4 Q 346.8 -47.9 339.6 -47.9 L 339.6 -47.9 L 339.6 -47.9 Q 325.8 -47.9 317.9 -55.2 L 317.9 -55.2 L 317.9 -55.2 Q 310.1 -62.5 310.1 -77.8 L 310.1 -77.8 L 310.1 -77.8 Q 310.1 -93.4 317.9 -100.5 L 317.9 -100.5 L 317.9 -100.5 Q 325.7 -107.6 340.2 -107.6 L 340.2 -107.6 L 340.2 -107.6 Q 347.2 -107.6 353.4 -106.1 L 353.4 -106.1 L 353.4 -106.1 Q 359.5 -104.6 362.6 -102.8 L 362.6 -102.8 L 362.6 -85.1 L 344.1 -85.1 L 344.1 -88.6 L 344.1 -88.6 Q 344.1 -91.7 342.8 -93 L 342.8 -93 L 342.8 -93 Q 341.5 -94.4 338.7 -94.4 L 338.7 -94.4 L 338.7 -94.4 Q 335.9 -94.4 334.6 -93 L 334.6 -93 L 334.6 -93 Q 333.3 -91.7 333.3 -88.6 L 333.3 -88.6 L 333.3 -66.9 L 333.3 -66.9 Q 333.3 -63.8 334.6 -62.5 L 334.6 -62.5 L 334.6 -62.5 Q 335.9 -61.1 338.7 -61.1 L 338.7 -61.1 L 338.7 -61.1 Q 341.5 -61.1 342.8 -62.5 L 342.8 -62.5 L 342.8 -62.5 Q 344.1 -63.8 344.1 -66.9 L 344.1 -66.9 L 344.1 -67.5 L 340.1 -67.5 L 340.1 -78.5 L 366.3 -78.5 Z M 408.1 -61.1 L 411.4 -61.1 L 411.4 -49 L 391.8 -49 L 391.8 -54 L 391.8 -54 Q 390.2 -51.6 387.3 -49.8 L 387.3 -49.8 L 387.3 -49.8 Q 384.4 -47.9 380.1 -47.9 L 380.1 -47.9 L 380.1 -47.9 Q 374.6 -47.9 371.4 -50.9 L 371.4 -50.9 L 371.4 -50.9 Q 368.2 -53.8 368.2 -59.3 L 368.2 -59.3 L 368.2 -59.3 Q 368.2 -73.2 392 -73.6 L 392 -73.6 L 392 -73.6 Q 391.8 -76.1 390.1 -77 L 390.1 -77 L 390.1 -77 Q 388.4 -78 384.3 -78 L 384.3 -78 L 384.3 -78 Q 381 -78 377.1 -77.3 L 377.1 -77.3 L 377.1 -77.3 Q 373.3 -76.6 370.2 -75.4 L 370.2 -75.4 L 370.2 -89 L 370.2 -89 Q 374.1 -90 378.7 -90.6 L 378.7 -90.6 L 378.7 -90.6 Q 383.3 -91.1 387.6 -91.1 L 387.6 -91.1 L 387.6 -91.1 Q 398.6 -91.1 403.4 -87.1 L 403.4 -87.1 L 403.4 -87.1 Q 408.1 -83.2 408.1 -74.8 L 408.1 -74.8 L 408.1 -61.1 Z M 391.8 -65.8 L 391.8 -66.3 L 391.8 -66.3 Q 388.5 -66.3 386.7 -65.4 L 386.7 -65.4 L 386.7 -65.4 Q 384.9 -64.5 384.9 -62.4 L 384.9 -62.4 L 384.9 -62.4 Q 384.9 -61.2 385.7 -60.4 L 385.7 -60.4 L 385.7 -60.4 Q 386.4 -59.6 387.8 -59.6 L 387.8 -59.6 L 387.8 -59.6 Q 389.8 -59.6 390.8 -61.2 L 390.8 -61.2 L 390.8 -61.2 Q 391.8 -62.9 391.8 -65.8 L 391.8 -65.8 Z M 437.3 -48.9 L 413.7 -48.9 L 413.7 -61.1 L 417 -61.1 L 417 -94.4 L 413.7 -94.4 L 413.7 -106.5 L 434 -106.5 L 434 -61.1 L 437.3 -61.1 L 437.3 -48.9 Z M 463.2 -48.9 L 439.6 -48.9 L 439.6 -61.1 L 442.9 -61.1 L 442.9 -94.4 L 439.6 -94.4 L 439.6 -106.5 L 459.9 -106.5 L 459.9 -61.1 L 463.2 -61.1 L 463.2 -48.9 Z M 487.6 -47.9 L 487.6 -47.9 Q 477.1 -47.9 471.2 -53.4 L 471.2 -53.4 L 471.2 -53.4 Q 465.2 -59 465.2 -69.5 L 465.2 -69.5 L 465.2 -69.5 Q 465.2 -80.1 471.2 -85.6 L 471.2 -85.6 L 471.2 -85.6 Q 477.1 -91.1 487.6 -91.1 L 487.6 -91.1 L 487.6 -91.1 Q 498 -91.1 502.7 -85.7 L 502.7 -85.7 L 502.7 -85.7 Q 507.3 -80.3 507.3 -72.2 L 507.3 -72.2 L 507.3 -66.9 L 483.3 -66.9 L 483.3 -66.4 L 483.3 -66.4 Q 483.3 -63.7 484.9 -62.4 L 484.9 -62.4 L 484.9 -62.4 Q 486.6 -61.1 490.3 -61.1 L 490.3 -61.1 L 490.3 -61.1 Q 494.8 -61.1 498.9 -61.8 L 498.9 -61.8 L 498.9 -61.8 Q 503 -62.4 506 -63.5 L 506 -63.5 L 506 -51.6 L 506 -51.6 Q 503.4 -50.2 498.4 -49.1 L 498.4 -49.1 L 498.4 -49.1 Q 493.4 -47.9 487.6 -47.9 L 487.6 -47.9 Z M 483.3 -75 L 491.9 -75 L 491.9 -75.9 L 491.9 -75.9 Q 491.9 -78.4 490.8 -79.5 L 490.8 -79.5 L 490.8 -79.5 Q 489.7 -80.6 487.6 -80.6 L 487.6 -80.6 L 487.6 -80.6 Q 485.4 -80.6 484.4 -79.5 L 484.4 -79.5 L 484.4 -79.5 Q 483.3 -78.3 483.3 -75.9 L 483.3 -75.9 L 483.3 -75 Z M 541.1 -91.1 L 541.1 -91.1 Q 542.6 -91.1 543.9 -90.8 L 543.9 -90.8 L 543.9 -90.8 Q 545.2 -90.6 546.1 -90.1 L 546.1 -90.1 L 546.1 -76 L 546.1 -76 Q 543.1 -77.2 539.6 -77.2 L 539.6 -77.2 L 539.6 -77.2 Q 535 -77.2 532.4 -74.8 L 532.4 -74.8 L 532.4 -74.8 Q 529.9 -72.3 529.9 -67.5 L 529.9 -67.5 L 529.9 -61.1 L 536.6 -61.1 L 536.6 -49 L 509.6 -49 L 509.6 -61.1 L 512.9 -61.1 L 512.9 -78 L 509.6 -78 L 509.6 -90.1 L 529.9 -90.1 L 529.9 -84.7 L 529.9 -84.7 Q 532 -87.8 534.7 -89.5 L 534.7 -89.5 L 534.7 -89.5 Q 537.3 -91.1 541.1 -91.1 L 541.1 -91.1 Z M 572.5 -90.1 L 593 -90.1 L 593 -78 L 590.2 -78 L 580.5 -52.3 L 580.5 -52.3 Q 576.9 -42.6 572.2 -37.8 L 572.2 -37.8 L 572.2 -37.8 Q 567.6 -32.9 560 -32.9 L 560 -32.9 L 560 -32.9 Q 556.9 -32.9 553.7 -33.5 L 553.7 -33.5 L 553.7 -33.5 Q 550.5 -34.2 547.9 -35.3 L 547.9 -35.3 L 547.9 -48.7 L 558.1 -48.7 L 558.1 -47.9 L 558.1 -47.9 Q 558.1 -46.1 560 -46.1 L 560 -46.1 L 560 -46.1 Q 561.7 -46.1 562.6 -47.7 L 562.6 -47.7 L 550.9 -78 L 548.1 -78 L 548.1 -90.1 L 570.1 -90.1 L 570.1 -78 L 567.6 -78 L 571.4 -66.4 L 575 -78 L 572.5 -78 L 572.5 -90.1 Z" fill="#006fce"></path></g></g><style>text {
  font-size: 64px;
  font-family: Arial Black;
  dominant-baseline: central;
  text-anchor: middle;
}</style></svg>